<svg version="1.2" xmlns="http://www.w3.org/2000/svg" viewBox="0 0 64 64" width="64" height="64">
	<title>SkyLight_64-svg</title>
	<defs>
		<radialGradient id="g1" cx="32.2" cy="28.5" r="18.8" gradientUnits="userSpaceOnUse">
			<stop offset=".1" stop-color="#ffffff"/>
			<stop offset=".4" stop-color="#d2d2d2"/>
			<stop offset=".7" stop-color="#808080"/>
			<stop offset="1" stop-color="#3b3b3b"/>
		</radialGradient>
		<linearGradient id="g2" x1="32.3" y1="45.9" x2="32.4" y2="58.4" gradientUnits="userSpaceOnUse">
			<stop offset="0" stop-color="#ffffff"/>
			<stop offset=".5" stop-color="#b3b3b3"/>
			<stop offset="1" stop-color="#808080"/>
		</linearGradient>
		<linearGradient id="g3" x1="47" y1="41.5" x2="47.1" y2="51.1" gradientUnits="userSpaceOnUse">
			<stop offset="0" stop-color="#ffffff"/>
			<stop offset=".5" stop-color="#b3b3b3"/>
			<stop offset="1" stop-color="#808080"/>
		</linearGradient>
		<linearGradient id="g4" x1="17.2" y1="41.5" x2="17.2" y2="51.3" gradientUnits="userSpaceOnUse">
			<stop offset="0" stop-color="#ffffff"/>
			<stop offset=".5" stop-color="#b3b3b3"/>
			<stop offset="1" stop-color="#808080"/>
		</linearGradient>
	</defs>
	<style>
		.s0 { fill: none } 
		.s1 { fill: #e5e5e5 } 
		.s2 { opacity: .9;fill: url(#g1) } 
		.s3 { fill: url(#g2) } 
		.s4 { fill: url(#g3) } 
		.s5 { fill: url(#g4) } 
	</style>
	<path id="Layer" class="s0" d="m0 0h64v64h-64z"/>
	<path id="Layer" class="s1" d="m59.1 32.5c0 1.4 0 3.1-0.3 4.4h-3.4c0.3-1.4 0.3-2.7 0.3-4.4 0-13.1-10.4-23.5-23.5-23.5-13.1 0-23.5 10.4-23.5 23.5 0 1.4 0 3.1 0.3 4.4h-3.4c-0.3-1.4-0.3-3.1-0.3-4.4 0-14.8 12.1-26.9 26.9-26.9 14.7 0 26.8 12.1 26.9 26.9z"/>
	<path id="Layer" class="s2" d="m9 36.9c-0.3-1.3-0.3-3-0.3-4.4 0-13.1 10.4-23.5 23.5-23.5 13.1 0 23.5 10.4 23.5 23.5 0 1.7 0 3-0.3 4.4 0 0-9.7-6.7-23.2-6.7-13.5 0-23.2 6.7-23.2 6.7z"/>
	<path id="Layer" class="s3" d="m34.2 47.3v9.7c0 0.8-0.6 1.4-1.4 1.4h-0.9c-0.8 0-1.4-0.6-1.4-1.4v-9.7c0-0.8 0.6-1.4 1.4-1.4h0.9c0.8 0 1.4 0.7 1.4 1.4z"/>
	<path id="Layer" class="s4" d="m45.2 42l6.2 6.1c0.5 0.6 0.5 1.5 0 2l-0.6 0.6c-0.6 0.5-1.5 0.5-2 0l-6.1-6.1c-0.5-0.6-0.5-1.5 0-2l0.6-0.6c0.5-0.6 1.4-0.6 1.9 0z"/>
	<path id="Layer" class="s5" d="m21.6 44.5l-6.3 6.3c-0.6 0.5-1.5 0.5-2 0l-0.6-0.6c-0.5-0.6-0.5-1.5 0-2l6.3-6.3c0.6-0.5 1.5-0.5 2 0l0.7 0.7c0.5 0.5 0.5 1.4-0.1 1.9z"/>
</svg>