<svg version="1.2" xmlns="http://www.w3.org/2000/svg" viewBox="0 0 16 16" width="16" height="16">
	<title>IBL_16-svg</title>
	<style>
		.s0 { fill: #ffffff } 
		.s1 { opacity: .5;fill: #ffffff } 
	</style>
	<path id="Layer" class="s0" d="m16 8.3c0 0.4 0 0.9-0.1 1.3h-1c0.1-0.4 0.1-0.8 0.1-1.3 0-3.9-3.1-7-7-7-3.9 0-7 3.1-7 7 0 0.4 0 0.9 0.1 1.3h-1c-0.1-0.4-0.1-0.9-0.1-1.3 0-4.4 3.6-8 8-8 4.4 0 8 3.6 8 8z"/>
	<path id="Layer" class="s1" d="m1.1 9.6c-0.1-0.4-0.1-0.9-0.1-1.3 0-3.9 3.1-7 7-7 3.9 0 7 3.1 7 7 0 0.5 0 0.9-0.1 1.3 0 0-2.9-2-6.9-2-4 0-6.9 2-6.9 2z"/>
	<path id="Layer" class="s0" d="m8.6 16h-1.1v-3.7h1.1z"/>
	<path id="Layer" class="s0" d="m14 13.2l-0.8 0.8-2.4-2.4 0.8-0.8z"/>
	<path id="Layer" class="s0" d="m2.7 14.1l-0.8-0.8 2.5-2.5 0.8 0.8z"/>
</svg>
